<svg xmlns="http://www.w3.org/2000/svg" version="1.1" xmlns:xlink="http://www.w3.org/1999/xlink" width="1500" height="239" viewBox="0 0 1500 239"><svg xml:space="preserve" width="1500" height="239" data-version="2" data-id="lg_bbT9woZMccoiUlxvSe" viewBox="0 0 593 239" x="0" y="0"><rect width="100%" height="100%" fill="transparent"></rect><path fill="#fad800" d="m224.374 175.776-45.767-45.733a7.194 7.194 0 0 0 4.316-6.612V86.057a7.331 7.331 0 0 0-6.44-7.194v-23.98a17.129 17.129 0 0 0-2.467-8.94l-.308-.446a17.814 17.814 0 0 0-12.127-8.188L147.878 3.498a2.055 2.055 0 0 0-1.815-1.234h-35.56l-.342.24-.274.274-9.866 15.896H89.915l-.308.205-.343.206-18.67 18.43a18.156 18.156 0 0 0-9.283 7.4l-.274.513a17.129 17.129 0 0 0-2.467 8.907v23.98a7.297 7.297 0 0 0-6.406 7.194v37.922a6.851 6.851 0 0 0 1.816 4.968L6.568 175.776a2.055 2.055 0 0 0-.411 2.158 2.055 2.055 0 0 0 1.816 1.234h214.996a2.055 2.055 0 0 0 1.816-1.234 2.055 2.055 0 0 0-.411-2.158m-48.748-49.022H59.152a3.426 3.426 0 0 1-3.425-3.425V91.984h123.256v31.345a3.426 3.426 0 0 1-3.357 3.425m-29.324 3.94h17.814v4.556a3.426 3.426 0 0 1-3.426 3.426h-10.962a3.426 3.426 0 0 1-3.426-3.426Zm-75.365 0h17.745v4.556a3.426 3.426 0 0 1-3.426 3.426H74.157a3.426 3.426 0 0 1-3.426-3.426Zm91.295-51.9a16.204 16.204 0 0 0-32.168 0H62.373v-23.98a13.703 13.703 0 0 1 1.712-6.234h34.943v6.646a2.055 2.055 0 0 0 1.952 1.952h32.956a1.953 1.953 0 0 0 1.952-1.952V48.58h35.08a13.703 13.703 0 0 1 1.575 6.303v23.98Zm-3.905 0h-24.391a12.367 12.367 0 0 1 24.39 0m-69.78-41.792H77.137l11.408-11.373Zm-12.23 3.94h82.765a2.055 2.055 0 0 0 1.37.65h.754l.343-.24a13.703 13.703 0 0 1 6.406 3.426H66.963a13.703 13.703 0 0 1 9.352-3.836m71.94-26.55 9.112 22.61h-9.25Zm-3.974 22.61h-6.851V14.186h6.851ZM103.173 48.58h28.981v4.659h-29.187ZM113.45 6.238h30.831v4.008h-9.112a1.953 1.953 0 0 0-1.987 1.953v24.802h-5.79V21.037a2.055 2.055 0 0 0-1.952-1.952h-12.06Zm-3.94 4.933v7.914h-4.967ZM92.382 23.024h30.831v13.977H92.382ZM59.29 82.734h116.473a3.426 3.426 0 0 1 3.426 3.426v2.09H55.967v-2.16a3.426 3.426 0 0 1 3.323-3.357m46.486 92.494 3.803-28.09h15.758l3.837 28.056Zm27.406 0-4.008-30.386a2.055 2.055 0 0 0-1.953-1.713h-19.184a2.055 2.055 0 0 0-1.952 1.713l-4.317 30.352H12.7l44.774-44.74a6.851 6.851 0 0 0 1.816.24h7.57v4.556a7.297 7.297 0 0 0 7.297 7.263h11.065a7.194 7.194 0 0 0 7.263-7.263v-4.556h49.946v4.556a7.194 7.194 0 0 0 7.297 7.4h11.03a7.297 7.297 0 0 0 7.297-7.4v-4.556h5.653l44.534 44.534Z"></path><path fill="#fad800" d="M84.229 95.512a9.25 9.25 0 1 0 0 18.499 9.25 9.25 0 0 0 0-18.499m0 14.525a5.31 5.31 0 1 1 0-10.62 5.31 5.31 0 0 1 0 10.62m66.458-14.525a9.25 9.25 0 1 0 .137 18.499 9.25 9.25 0 0 0-.137-18.499m0 14.525a5.31 5.31 0 1 1 0-10.62 5.31 5.31 0 0 1 0 10.62m-17.3-13.395h-31.859a2.055 2.055 0 0 0-1.952 1.953v12.298a2.055 2.055 0 0 0 1.952 1.953h31.86a1.953 1.953 0 0 0 1.952-1.953V98.595a1.953 1.953 0 0 0-1.953-1.953m-1.986 12.264h-27.886v-8.324h27.886Zm1.986 8.77H100.98a1.987 1.987 0 0 0 0 3.94h32.407a1.987 1.987 0 0 0 0-3.94"></path><path fill="#111" d="M344.192 32.196v113.95q0 6.67-.84 11.38-.83 4.71-2.3 7.66-1.48 2.94-3.59 4.31-2.11 1.38-4.56 1.38-1.87 0-4.12-1.28-2.26-1.27-4.27-3.14-2.01-1.86-3.34-3.83-1.32-1.96-1.32-3.43 0-.98.24-1.23.25-.24.69-.19.44.04 1.08.24.64.2 1.42.2 2.75 0 3.98-3.49 1.22-3.48 1.22-11.14v-111q-9.32.79-17.96 3.29-8.63 2.5-15.21 7.51-6.58 5-10.5 13-3.93 8-3.93 19.68 0 5.2 1.03 9.37 1.03 4.17 2.7 7.51 1.67 3.34 3.68 5.89 2.01 2.55 3.98 4.51 1.67-.49 2.35.4.69.88.69 2.45 0 1.96-.83 4.07-.84 2.11-2.21 3.83-1.38 1.72-3.09 2.85-1.72 1.13-3.49 1.13-.78 0-1.52-.2t-1.52-.88q-2.16-1.57-5.2-5.16-3.04-3.58-5.79-8.88-2.75-5.3-4.71-12.12-1.97-6.82-1.97-14.77 0-14.53 5.4-25.62 5.4-11.09 15.02-18.59 9.62-7.51 22.82-11.34 13.2-3.83 28.9-3.83 3.63 0 8.78.05 5.16.05 10.26.15 5.1.1 9.18.15 4.07.05 5.54.05 1.28 0 2.11-.25.84-.25 1.38-.54.54-.29.83-.54.29-.24.49-.24.49 0 .93.63.44.64.79 1.57.34.94.54 2.11.19 1.18.19 2.36 0 1.77-.49 3.68-.49 1.91-1.47 3.43-.98 1.53-2.45 2.51-1.47.98-3.44.98-1.08 0-3.97-.05-2.9-.05-6.63-.15-3.73-.1-7.85-.19-4.12-.1-7.65-.2m71.15 130.83q-3.53 0-7.21-1.08t-6.68-3.73q-2.99-2.65-4.9-7.02-1.92-4.37-1.92-11.04 0-9.72 2.6-20.56 2.6-10.85 7.51-23.9h-17.57q-.09 2.94-.34 7.46-.25 4.51-.83 9.62-.59 5.1-1.53 10.3-.93 5.2-2.3 9.62-.98 3.14-3.09 3.63-2.11.49-4.17-.73-2.07-1.23-3.34-3.59-1.28-2.35-.59-4.9.78-3.05 1.37-7.41.59-4.37.94-9.23.34-4.86.54-9.72.19-4.85.29-8.68-3.73-2.06-6.18-5.25-2.46-3.19-2.46-7.61 0-2.06.84-3.78.83-1.72 2.21-2.94 1.37-1.23 3.23-1.87 1.87-.63 3.83-.63 1.77 0 3.68.49 1.92.49 3.63 1.76 1.72 1.28 3.1 3.34 1.37 2.06 2.25 5.1 2.46.3 4.17.44 1.72.15 2.9.25t1.96.1h12.07q.89 0 2.6 1.08 1.72 1.08 3.39 2.8 1.67 1.71 2.8 3.68 1.13 1.96.83 3.72 0 .59-.68 2.85-.69 2.26-1.67 5.69-.98 3.44-2.16 7.9-1.18 4.47-2.16 9.38-.98 4.9-1.67 10.15-.69 5.26-.69 10.26 0 2.06.49 4.02.49 1.97 1.48 3.49.98 1.52 2.5 2.4 1.52.89 3.58.89 3.44 0 5.89-2.16 2.45-2.16 4.12-5.4t2.7-7.02q1.03-3.78 1.72-7.11.59-3.14 1.96-4.57 1.37-1.42 2.85-1.42 1.17 0 2.45.74 1.28.73 2.31 1.91t1.67 2.65q.63 1.47.63 2.94 0 .5-.09.79-.1.29-.1.59-1.38 5-3.59 10.5-2.2 5.5-5.64 10.11-3.43 4.61-8.24 7.65-4.81 3.05-11.29 3.05"></path><path fill="#111" d="M443.902 60.756q-2.45 0-4.66-.98t-3.83-2.65q-1.62-1.67-2.6-3.88t-.98-4.76q0-2.65.98-4.91.98-2.25 2.6-3.87t3.83-2.55q2.21-.94 4.66-.94 2.65 0 4.91.94 2.26.93 3.87 2.55 1.62 1.62 2.56 3.87.93 2.26.93 4.91 0 2.55-.93 4.76-.94 2.21-2.56 3.88-1.61 1.67-3.87 2.65t-4.91.98m4.61 28.76v51.03q0 .69.1 2.21t.59 3.09q.49 1.57 1.57 2.75t3.04 1.18q2.95 0 5.16-2.16 2.2-2.16 3.82-5.4 1.62-3.24 2.7-7.02 1.08-3.78 1.77-7.11.59-3.05 1.81-4.42 1.23-1.37 2.65-1.52 1.43-.15 2.85.74 1.42.88 2.55 2.3t1.67 3.19q.54 1.77.15 3.34-1.38 5-3.58 10.5-2.21 5.5-5.65 10.11-3.43 4.61-8.24 7.65-4.81 3.05-11.29 3.05-4.02 0-7.16-1.52-3.14-1.53-5.3-4.08-2.16-2.55-3.29-5.98-1.13-3.44-1.13-7.27v-53.68q0-2.85-.44-4.12-.44-1.28-.44-2.36 0-1.47 1.57-2.4 1.57-.94 3.73-.94 5 0 7.9 2.6 2.89 2.6 2.89 6.24"></path><path fill="#111" d="M492.972 165.086q-3.73 0-6.08-.84-2.36-.83-3.63-2.21v65.37q0 2.75-1.08 4.46-1.08 1.72-2.7 2.7-1.62.99-3.49 1.33-1.86.34-3.33.34-3.05 0-3.83-1.57-.79-1.57-.79-3.83V90.496q0-2.16-.34-3.44-.34-1.27-.69-2.01-.34-.74-.68-1.18-.35-.44-.35-1.03 0-.49.59-.88t1.57-.69q.98-.29 2.11-.44 1.13-.15 2.21-.15 4.81 0 7.71 2.6 2.89 2.6 3.09 6.04 3.14-4.61 7.55-7.66 4.42-3.04 10.8-3.04 5.89 0 10.26 2.75 4.36 2.75 7.26 7.51 2.89 4.76 4.32 11.24 1.42 6.47 1.42 13.93 0 8.44-1.47 16.15-1.47 7.7-3.73 13.2 5-.3 8.24-1.38 3.24-1.08 5.45-2.99 2.21-1.91 3.83-4.66t3.38-6.28q1.38-2.85 2.31-4.13.93-1.27 2.31-1.27 1.27 0 2.6.78 1.32.79 2.35 1.97 1.03 1.17 1.67 2.5.64 1.32.64 2.4 0 3.44-2.36 7.86-2.35 4.41-7.21 8.34-4.86 3.92-12.27 6.62-7.41 2.7-17.42 2.7-4.12 4.42-9.52 6.82-5.4 2.41-10.7 2.41m3.54-73.02q-2.16 0-4.17 1.27-2.02 1.28-3.78 3.49-1.77 2.21-3.09 5.35-1.33 3.14-2.21 6.77v43.48q2.16-3.14 7.06-4.81 4.91-1.67 11.88-2.26 1.77-2.65 3.09-6.33 1.33-3.68 2.21-7.61.88-3.92 1.32-7.65.45-3.73.45-6.58 0-6.87-1.04-11.68-1.03-4.81-2.79-7.8-1.77-2.99-4.08-4.32-2.3-1.32-4.85-1.32"></path><path fill="#111" d="M551.172 60.756q-2.45 0-4.66-.98t-3.83-2.65q-1.62-1.67-2.6-3.88t-.98-4.76q0-2.65.98-4.91.98-2.25 2.6-3.87t3.83-2.55q2.21-.94 4.66-.94 2.65 0 4.91.94 2.26.93 3.88 2.55 1.62 1.62 2.55 3.87.93 2.26.93 4.91 0 2.55-.93 4.76t-2.55 3.88q-1.62 1.67-3.88 2.65t-4.91.98m4.62 28.76v51.03q0 .69.09 2.21.1 1.52.59 3.09.49 1.57 1.57 2.75t3.05 1.18q2.94 0 5.15-2.16 2.21-2.16 3.83-5.4t2.69-7.02q1.08-3.78 1.77-7.11.59-3.05 1.82-4.42 1.22-1.37 2.65-1.52 1.42-.15 2.84.74 1.43.88 2.55 2.3 1.13 1.42 1.67 3.19t.15 3.34q-1.37 5-3.58 10.5t-5.65 10.11q-3.43 4.61-8.24 7.65-4.81 3.05-11.29 3.05-4.02 0-7.16-1.52-3.14-1.53-5.3-4.08-2.16-2.55-3.29-5.98-1.13-3.44-1.13-7.27v-53.68q0-2.85-.44-4.12-.44-1.28-.44-2.36 0-1.47 1.57-2.4 1.57-.94 3.73-.94 5.01 0 7.9 2.6 2.9 2.6 2.9 6.24"></path></svg></svg>